<svg width="270" height="55" viewBox="0 0 270 55" fill="none" xmlns="http://www.w3.org/2000/svg">
<rect width="270" height="55" rx="27.5" fill="#0C3122"/>
<path d="M65.7812 36.0001H64.1211V23.1974H56.7871V36.0001H55.127V21.7228H65.7812V36.0001ZM74.4531 36.1954C73.7565 36.1954 73.1185 36.0685 72.5391 35.8146C71.9661 35.5542 71.4844 35.157 71.0938 34.6232H70.9766C71.0547 35.2482 71.0938 35.8406 71.0938 36.4005V40.8048H69.4727V25.297H70.791L71.0156 26.7618H71.0938C71.5104 26.1759 71.9954 25.7527 72.5488 25.4923C73.1022 25.2319 73.737 25.1017 74.4531 25.1017C75.8724 25.1017 76.9661 25.5867 77.7344 26.5568C78.5091 27.5268 78.8965 28.8875 78.8965 30.6388C78.8965 32.3966 78.5026 33.7638 77.7148 34.7404C76.9336 35.7104 75.8464 36.1954 74.4531 36.1954ZM74.2188 26.4786C73.125 26.4786 72.334 26.7814 71.8457 27.3868C71.3574 27.9923 71.1068 28.9559 71.0938 30.2775V30.6388C71.0938 32.1427 71.3444 33.2202 71.8457 33.8712C72.347 34.5157 73.151 34.838 74.2578 34.838C75.1823 34.838 75.9049 34.4637 76.4258 33.715C76.9531 32.9663 77.2168 31.9344 77.2168 30.6193C77.2168 29.2846 76.9531 28.2625 76.4258 27.5529C75.9049 26.8367 75.1693 26.4786 74.2188 26.4786ZM83.2617 25.297V32.0841L83.1934 33.8615L83.1641 34.4181L88.9551 25.297H90.9766V36.0001H89.4629V29.4572L89.4922 28.1681L89.541 26.8986L83.7598 36.0001H81.7383V25.297H83.2617ZM98.6914 36.1954C97.1419 36.1954 95.9408 35.7202 95.0879 34.7697C94.2415 33.8126 93.8184 32.4617 93.8184 30.7169C93.8184 28.9266 94.248 27.5431 95.1074 26.5665C95.9733 25.59 97.2038 25.1017 98.7988 25.1017C99.3132 25.1017 99.8275 25.157 100.342 25.2677C100.856 25.3784 101.26 25.5086 101.553 25.6583L101.055 27.0353C100.697 26.892 100.306 26.7749 99.8828 26.6837C99.4596 26.5861 99.0853 26.5372 98.7598 26.5372C96.5853 26.5372 95.498 27.924 95.498 30.6974C95.498 32.0125 95.7617 33.0216 96.2891 33.7247C96.8229 34.4279 97.6107 34.7794 98.6523 34.7794C99.5443 34.7794 100.459 34.5874 101.396 34.2032V35.6388C100.68 36.0099 99.7786 36.1954 98.6914 36.1954ZM113.184 30.6388C113.184 32.3836 112.744 33.7475 111.865 34.7306C110.986 35.7072 109.772 36.1954 108.223 36.1954C107.266 36.1954 106.416 35.9708 105.674 35.5216C104.932 35.0724 104.359 34.4279 103.955 33.588C103.551 32.7482 103.35 31.7651 103.35 30.6388C103.35 28.894 103.786 27.5366 104.658 26.5665C105.531 25.59 106.742 25.1017 108.291 25.1017C109.788 25.1017 110.977 25.5997 111.855 26.5958C112.741 27.5919 113.184 28.9396 113.184 30.6388ZM105.029 30.6388C105.029 32.006 105.303 33.0476 105.85 33.7638C106.396 34.4799 107.201 34.838 108.262 34.838C109.323 34.838 110.127 34.4832 110.674 33.7736C111.227 33.0574 111.504 32.0125 111.504 30.6388C111.504 29.2781 111.227 28.2462 110.674 27.5431C110.127 26.8335 109.316 26.4786 108.242 26.4786C107.181 26.4786 106.38 26.8269 105.84 27.5236C105.299 28.2202 105.029 29.2586 105.029 30.6388ZM120.557 36.1954C118.975 36.1954 117.725 35.7137 116.807 34.7501C115.895 33.7866 115.439 32.4487 115.439 30.7365C115.439 29.0112 115.863 27.6407 116.709 26.6251C117.562 25.6095 118.704 25.1017 120.137 25.1017C121.478 25.1017 122.539 25.5444 123.32 26.4298C124.102 27.3087 124.492 28.4708 124.492 29.9161V30.9415H117.119C117.152 32.198 117.467 33.1518 118.066 33.8029C118.672 34.4539 119.521 34.7794 120.615 34.7794C121.768 34.7794 122.907 34.5385 124.033 34.0568V35.5021C123.46 35.7495 122.917 35.9253 122.402 36.0294C121.895 36.1401 121.279 36.1954 120.557 36.1954ZM120.117 26.4591C119.258 26.4591 118.571 26.7391 118.057 27.299C117.549 27.8588 117.249 28.6336 117.158 29.6232H122.754C122.754 28.601 122.526 27.8198 122.07 27.2794C121.615 26.7325 120.964 26.4591 120.117 26.4591ZM136.562 39.7013H134.99V36.0001H127.51V39.7013H125.947V34.6036H126.787C127.66 33.4187 128.343 32.0288 128.838 30.4337C129.333 28.8387 129.59 27.1264 129.609 25.297H135.029V34.6036H136.562V39.7013ZM133.467 34.6036V26.5763H131.064C130.98 28.0216 130.7 29.4865 130.225 30.9708C129.756 32.4487 129.17 33.6596 128.467 34.6036H133.467ZM140.234 25.297V32.0841L140.166 33.8615L140.137 34.4181L145.928 25.297H147.949V36.0001H146.436V29.4572L146.465 28.1681L146.514 26.8986L140.732 36.0001H138.711V25.297H140.234ZM153.008 25.297V29.7794H159.004V25.297H160.625V36.0001H159.004V31.1759H153.008V36.0001H151.387V25.297H153.008ZM165.586 25.297V32.0841L165.518 33.8615L165.488 34.4181L171.279 25.297H173.301V36.0001H171.787V29.4572L171.816 28.1681L171.865 26.8986L166.084 36.0001H164.062V25.297H165.586ZM183.955 26.6837H180.479V36.0001H178.857V26.6837H175.42V25.297H183.955V26.6837ZM187.695 29.7208H190.996C193.73 29.7208 195.098 30.7267 195.098 32.7384C195.098 33.7931 194.74 34.6004 194.023 35.1603C193.314 35.7202 192.272 36.0001 190.898 36.0001H186.074V25.297H187.695V29.7208ZM187.695 31.1173V34.6427H190.82C191.68 34.6427 192.337 34.493 192.793 34.1935C193.249 33.894 193.477 33.4415 193.477 32.8361C193.477 32.2436 193.265 31.8107 192.842 31.5372C192.425 31.2573 191.735 31.1173 190.771 31.1173H187.695ZM202.188 36.1954C200.638 36.1954 199.437 35.7202 198.584 34.7697C197.738 33.8126 197.314 32.4617 197.314 30.7169C197.314 28.9266 197.744 27.5431 198.604 26.5665C199.469 25.59 200.7 25.1017 202.295 25.1017C202.809 25.1017 203.324 25.157 203.838 25.2677C204.352 25.3784 204.756 25.5086 205.049 25.6583L204.551 27.0353C204.193 26.892 203.802 26.7749 203.379 26.6837C202.956 26.5861 202.581 26.5372 202.256 26.5372C200.081 26.5372 198.994 27.924 198.994 30.6974C198.994 32.0125 199.258 33.0216 199.785 33.7247C200.319 34.4279 201.107 34.7794 202.148 34.7794C203.04 34.7794 203.955 34.5874 204.893 34.2032V35.6388C204.176 36.0099 203.275 36.1954 202.188 36.1954ZM207.979 36.0001H206.084L209.16 31.4786C208.333 31.2963 207.699 30.9448 207.256 30.424C206.82 29.8966 206.602 29.2358 206.602 28.4415C206.602 27.465 206.93 26.6967 207.588 26.1368C208.245 25.5769 209.163 25.297 210.342 25.297H215.107V36.0001H213.486V31.7228H210.781L207.979 36.0001ZM208.184 28.4611C208.184 29.698 209.082 30.3165 210.879 30.3165H213.486V26.7032H210.547C208.971 26.7032 208.184 27.2892 208.184 28.4611Z" fill="white"/>
</svg>
