<svg width="170" height="26" viewBox="0 0 170 26" fill="none" xmlns="http://www.w3.org/2000/svg">
<rect x="0.5" y="0.5" width="169" height="25" rx="12.5" fill="white" stroke="#0C3122"/>
<path d="M43.0904 17.168C42.5117 17.168 41.9797 17.0607 41.4944 16.846C41.0091 16.6313 40.5844 16.3233 40.2204 15.922C39.8657 15.5113 39.5857 15.012 39.3804 14.424C39.1844 13.8267 39.0864 13.1547 39.0864 12.408C39.0864 11.6707 39.1891 11.008 39.3944 10.42C39.5997 9.832 39.8844 9.33267 40.2484 8.922C40.6124 8.51133 41.0417 8.19867 41.5364 7.984C42.0311 7.76 42.5724 7.648 43.1604 7.648C43.7204 7.648 44.2104 7.76467 44.6304 7.998C45.0597 8.222 45.4097 8.48333 45.6804 8.782L45.0504 9.538C44.8077 9.27667 44.5324 9.06667 44.2244 8.908C43.9164 8.74933 43.5664 8.67 43.1744 8.67C42.7357 8.67 42.3391 8.75867 41.9844 8.936C41.6297 9.104 41.3264 9.35133 41.0744 9.678C40.8224 9.99533 40.6264 10.3827 40.4864 10.84C40.3557 11.2973 40.2904 11.8107 40.2904 12.38C40.2904 12.9587 40.3557 13.4813 40.4864 13.948C40.6264 14.4053 40.8177 14.7973 41.0604 15.124C41.3031 15.4507 41.5971 15.7027 41.9424 15.88C42.2971 16.0573 42.6937 16.146 43.1324 16.146C43.5804 16.146 43.9724 16.0573 44.3084 15.88C44.6444 15.6933 44.9617 15.4367 45.2604 15.11L45.9044 15.838C45.5404 16.258 45.1297 16.5847 44.6724 16.818C44.2151 17.0513 43.6877 17.168 43.0904 17.168ZM50.1504 17.168C49.7304 17.168 49.3291 17.0887 48.9464 16.93C48.5731 16.7713 48.2418 16.5427 47.9524 16.244C47.6631 15.936 47.4298 15.5627 47.2524 15.124C47.0844 14.676 47.0004 14.172 47.0004 13.612C47.0004 13.0427 47.0844 12.5387 47.2524 12.1C47.4298 11.652 47.6631 11.274 47.9524 10.966C48.2418 10.658 48.5731 10.4247 48.9464 10.266C49.3291 10.1073 49.7304 10.028 50.1504 10.028C50.5704 10.028 50.9671 10.1073 51.3404 10.266C51.7231 10.4247 52.0591 10.658 52.3484 10.966C52.6378 11.274 52.8664 11.652 53.0344 12.1C53.2118 12.5387 53.3004 13.0427 53.3004 13.612C53.3004 14.172 53.2118 14.676 53.0344 15.124C52.8664 15.5627 52.6378 15.936 52.3484 16.244C52.0591 16.5427 51.7231 16.7713 51.3404 16.93C50.9671 17.0887 50.5704 17.168 50.1504 17.168ZM50.1504 16.216C50.4398 16.216 50.7058 16.1553 50.9484 16.034C51.1911 15.9033 51.3964 15.726 51.5644 15.502C51.7418 15.2687 51.8771 14.9933 51.9704 14.676C52.0638 14.3587 52.1104 14.004 52.1104 13.612C52.1104 13.22 52.0638 12.8653 51.9704 12.548C51.8771 12.2213 51.7418 11.9413 51.5644 11.708C51.3964 11.4747 51.1911 11.2973 50.9484 11.176C50.7058 11.0453 50.4398 10.98 50.1504 10.98C49.8611 10.98 49.5951 11.0453 49.3524 11.176C49.1098 11.2973 48.8998 11.4747 48.7224 11.708C48.5544 11.9413 48.4238 12.2213 48.3304 12.548C48.2371 12.8653 48.1904 13.22 48.1904 13.612C48.1904 14.004 48.2371 14.3587 48.3304 14.676C48.4238 14.9933 48.5544 15.2687 48.7224 15.502C48.8998 15.726 49.1098 15.9033 49.3524 16.034C49.5951 16.1553 49.8611 16.216 50.1504 16.216ZM56.8059 17.168C56.3299 17.168 55.8819 17.1073 55.4619 16.986C55.0419 16.8553 54.6312 16.6267 54.2299 16.3L54.7199 15.558C55.0372 15.8193 55.3592 16.0013 55.6859 16.104C56.0219 16.1973 56.3626 16.244 56.7079 16.244C56.9412 16.244 57.1606 16.216 57.3659 16.16C57.5712 16.104 57.7486 16.0247 57.8979 15.922C58.0566 15.8193 58.1779 15.6933 58.2619 15.544C58.3552 15.3853 58.4019 15.2127 58.4019 15.026C58.4019 14.634 58.2526 14.3447 57.9539 14.158C57.6552 13.9713 57.2259 13.878 56.6659 13.878H55.7279V13.052H56.4979C57.0486 13.052 57.4592 12.9587 57.7299 12.772C58.0006 12.576 58.1359 12.31 58.1359 11.974C58.1359 11.6287 58.0052 11.372 57.7439 11.204C57.4826 11.0267 57.1419 10.938 56.7219 10.938C56.3299 10.938 55.9892 10.9893 55.6999 11.092C55.4199 11.1947 55.1446 11.344 54.8739 11.54L54.3839 10.784C54.7106 10.5507 55.0652 10.3687 55.4479 10.238C55.8399 10.098 56.2832 10.028 56.7779 10.028C57.1139 10.028 57.4312 10.0653 57.7299 10.14C58.0286 10.2147 58.2899 10.3267 58.5139 10.476C58.7379 10.6253 58.9152 10.8167 59.0459 11.05C59.1859 11.2833 59.2559 11.554 59.2559 11.862C59.2559 12.1887 59.1579 12.4873 58.9619 12.758C58.7659 13.0287 58.4906 13.234 58.1359 13.374V13.43C58.5279 13.5327 58.8592 13.7193 59.1299 13.99C59.4099 14.2513 59.5499 14.6293 59.5499 15.124C59.5499 15.4413 59.4752 15.726 59.3259 15.978C59.1766 16.23 58.9759 16.4447 58.7239 16.622C58.4719 16.7993 58.1779 16.9347 57.8419 17.028C57.5152 17.1213 57.1699 17.168 56.8059 17.168ZM61.4827 17V19.408H60.4887L60.3627 16.79V16.062H60.6987C60.792 16.006 60.8807 15.9313 60.9647 15.838C61.058 15.7353 61.142 15.5813 61.2167 15.376C61.2913 15.1707 61.366 14.8953 61.4407 14.55C61.5153 14.2047 61.5853 13.7567 61.6507 13.206L62.0147 10.196H66.2427V16.062H67.2367V16.79L67.1247 19.408H66.1307V17H61.4827ZM62.6587 13.43C62.584 14.102 62.4813 14.648 62.3507 15.068C62.2293 15.488 62.0893 15.8193 61.9307 16.062H65.0947V11.134H62.9247L62.6587 13.43ZM70.3185 17.168C69.7492 17.168 69.2732 17 68.8905 16.664C68.5172 16.328 68.3305 15.852 68.3305 15.236C68.3305 14.4893 68.6619 13.92 69.3245 13.528C69.9872 13.1267 71.0465 12.8467 72.5025 12.688C72.5025 12.4733 72.4792 12.2633 72.4325 12.058C72.3952 11.8527 72.3252 11.6707 72.2225 11.512C72.1199 11.3533 71.9752 11.2273 71.7885 11.134C71.6112 11.0313 71.3825 10.98 71.1025 10.98C70.7105 10.98 70.3419 11.0547 69.9965 11.204C69.6512 11.3533 69.3432 11.5213 69.0725 11.708L68.6245 10.91C68.9419 10.7047 69.3292 10.5087 69.7865 10.322C70.2439 10.126 70.7479 10.028 71.2985 10.028C72.1292 10.028 72.7312 10.2847 73.1045 10.798C73.4779 11.302 73.6645 11.9787 73.6645 12.828V17H72.7125L72.6145 16.188H72.5725C72.2459 16.4587 71.8959 16.692 71.5225 16.888C71.1492 17.0747 70.7479 17.168 70.3185 17.168ZM70.6545 16.244C70.9812 16.244 71.2892 16.1693 71.5785 16.02C71.8679 15.8613 72.1759 15.6327 72.5025 15.334V13.444C71.9332 13.5187 71.4525 13.6073 71.0605 13.71C70.6779 13.8127 70.3652 13.934 70.1225 14.074C69.8892 14.214 69.7165 14.3773 69.6045 14.564C69.5019 14.7413 69.4505 14.9373 69.4505 15.152C69.4505 15.544 69.5672 15.824 69.8005 15.992C70.0339 16.16 70.3185 16.244 70.6545 16.244ZM77.1118 17V11.134H74.8298V10.196H80.5418V11.134H78.2598V17H77.1118ZM82.0533 17V10.196H83.2013V12.702H84.4893C84.8906 12.702 85.2546 12.744 85.5813 12.828C85.9173 12.912 86.2019 13.0427 86.4353 13.22C86.6779 13.388 86.8646 13.6073 86.9953 13.878C87.1259 14.1393 87.1913 14.4567 87.1913 14.83C87.1913 15.2127 87.1259 15.5393 86.9953 15.81C86.8646 16.0807 86.6779 16.3047 86.4353 16.482C86.2019 16.6593 85.9173 16.79 85.5813 16.874C85.2546 16.958 84.8906 17 84.4893 17H82.0533ZM83.2013 16.076H84.3633C85.4926 16.076 86.0573 15.6607 86.0573 14.83C86.0573 14.4007 85.9173 14.088 85.6373 13.892C85.3666 13.696 84.9419 13.598 84.3633 13.598H83.2013V16.076ZM93.679 17.168C93.203 17.168 92.755 17.1073 92.335 16.986C91.915 16.8553 91.5043 16.6267 91.103 16.3L91.593 15.558C91.9103 15.8193 92.2323 16.0013 92.559 16.104C92.895 16.1973 93.2356 16.244 93.581 16.244C93.8143 16.244 94.0336 16.216 94.239 16.16C94.4443 16.104 94.6216 16.0247 94.771 15.922C94.9296 15.8193 95.051 15.6933 95.135 15.544C95.2283 15.3853 95.275 15.2127 95.275 15.026C95.275 14.634 95.1256 14.3447 94.827 14.158C94.5283 13.9713 94.099 13.878 93.539 13.878H92.601V13.052H93.371C93.9216 13.052 94.3323 12.9587 94.603 12.772C94.8736 12.576 95.009 12.31 95.009 11.974C95.009 11.6287 94.8783 11.372 94.617 11.204C94.3556 11.0267 94.015 10.938 93.595 10.938C93.203 10.938 92.8623 10.9893 92.573 11.092C92.293 11.1947 92.0176 11.344 91.747 11.54L91.257 10.784C91.5836 10.5507 91.9383 10.3687 92.321 10.238C92.713 10.098 93.1563 10.028 93.651 10.028C93.987 10.028 94.3043 10.0653 94.603 10.14C94.9016 10.2147 95.163 10.3267 95.387 10.476C95.611 10.6253 95.7883 10.8167 95.919 11.05C96.059 11.2833 96.129 11.554 96.129 11.862C96.129 12.1887 96.031 12.4873 95.835 12.758C95.639 13.0287 95.3636 13.234 95.009 13.374V13.43C95.401 13.5327 95.7323 13.7193 96.003 13.99C96.283 14.2513 96.423 14.6293 96.423 15.124C96.423 15.4413 96.3483 15.726 96.199 15.978C96.0496 16.23 95.849 16.4447 95.597 16.622C95.345 16.7993 95.051 16.9347 94.715 17.028C94.3883 17.1213 94.043 17.168 93.679 17.168ZM99.6857 17.168C99.1164 17.168 98.6404 17 98.2577 16.664C97.8844 16.328 97.6977 15.852 97.6977 15.236C97.6977 14.4893 98.0291 13.92 98.6917 13.528C99.3544 13.1267 100.414 12.8467 101.87 12.688C101.87 12.4733 101.846 12.2633 101.8 12.058C101.762 11.8527 101.692 11.6707 101.59 11.512C101.487 11.3533 101.342 11.2273 101.156 11.134C100.978 11.0313 100.75 10.98 100.47 10.98C100.078 10.98 99.7091 11.0547 99.3637 11.204C99.0184 11.3533 98.7104 11.5213 98.4397 11.708L97.9917 10.91C98.3091 10.7047 98.6964 10.5087 99.1537 10.322C99.6111 10.126 100.115 10.028 100.666 10.028C101.496 10.028 102.098 10.2847 102.472 10.798C102.845 11.302 103.032 11.9787 103.032 12.828V17H102.08L101.982 16.188H101.94C101.613 16.4587 101.263 16.692 100.89 16.888C100.516 17.0747 100.115 17.168 99.6857 17.168ZM100.022 16.244C100.348 16.244 100.656 16.1693 100.946 16.02C101.235 15.8613 101.543 15.6327 101.87 15.334V13.444C101.3 13.5187 100.82 13.6073 100.428 13.71C100.045 13.8127 99.7324 13.934 99.4897 14.074C99.2564 14.214 99.0837 14.3773 98.9717 14.564C98.8691 14.7413 98.8177 14.9373 98.8177 15.152C98.8177 15.544 98.9344 15.824 99.1677 15.992C99.4011 16.16 99.6857 16.244 100.022 16.244ZM108.924 17V14.312H107.664H107.65L105.774 17H104.472L106.544 14.158C106.106 14.0273 105.737 13.808 105.438 13.5C105.14 13.1827 104.99 12.7533 104.99 12.212C104.99 11.8387 105.056 11.526 105.186 11.274C105.326 11.0127 105.513 10.8027 105.746 10.644C105.989 10.4853 106.274 10.3733 106.6 10.308C106.927 10.2333 107.282 10.196 107.664 10.196H110.072V17H108.924ZM107.86 13.472H108.924V11.092H107.86C107.328 11.092 106.908 11.1853 106.6 11.372C106.302 11.5493 106.152 11.8387 106.152 12.24C106.152 12.6413 106.302 12.9493 106.6 13.164C106.908 13.3693 107.328 13.472 107.86 13.472ZM112.364 17V10.196H114.982C115.355 10.196 115.696 10.2287 116.004 10.294C116.312 10.3593 116.573 10.462 116.788 10.602C117.012 10.7327 117.184 10.91 117.306 11.134C117.427 11.3487 117.488 11.61 117.488 11.918C117.488 12.3007 117.385 12.6133 117.18 12.856C116.984 13.0987 116.708 13.2713 116.354 13.374V13.416C116.55 13.4627 116.732 13.528 116.9 13.612C117.077 13.696 117.231 13.8033 117.362 13.934C117.492 14.0647 117.595 14.2233 117.67 14.41C117.744 14.5967 117.782 14.8113 117.782 15.054C117.782 15.39 117.712 15.6793 117.572 15.922C117.441 16.1647 117.254 16.37 117.012 16.538C116.778 16.6967 116.498 16.8133 116.172 16.888C115.845 16.9627 115.486 17 115.094 17H112.364ZM113.498 13.052H114.786C115.355 13.052 115.761 12.9633 116.004 12.786C116.246 12.5993 116.368 12.3473 116.368 12.03C116.368 11.7127 116.251 11.4653 116.018 11.288C115.784 11.1107 115.402 11.022 114.87 11.022H113.498V13.052ZM113.498 16.174H114.968C115.528 16.174 115.943 16.0713 116.214 15.866C116.494 15.6607 116.634 15.3667 116.634 14.984C116.634 14.6387 116.489 14.368 116.2 14.172C115.91 13.976 115.476 13.878 114.898 13.878H113.498V16.174ZM119.473 17V10.196H120.621V12.996H121.937L122.609 11.484C122.74 11.1853 122.871 10.9427 123.001 10.756C123.132 10.5693 123.272 10.4247 123.421 10.322C123.571 10.21 123.725 10.1353 123.883 10.098C124.042 10.0513 124.215 10.028 124.401 10.028C124.551 10.028 124.681 10.0513 124.793 10.098L124.597 11.176C124.551 11.1573 124.513 11.148 124.485 11.148C124.457 11.148 124.42 11.148 124.373 11.148C124.28 11.148 124.191 11.162 124.107 11.19C124.033 11.2087 123.953 11.2507 123.869 11.316C123.795 11.3813 123.715 11.4747 123.631 11.596C123.547 11.7173 123.463 11.876 123.379 12.072L122.805 13.416L125.115 17H123.855L121.965 13.934H120.621V17H119.473ZM126.366 19.926C126.208 19.926 126.063 19.912 125.932 19.884C125.802 19.8653 125.68 19.8327 125.568 19.786L125.792 18.876C125.867 18.8947 125.951 18.9133 126.044 18.932C126.138 18.96 126.226 18.974 126.31 18.974C126.702 18.974 127.02 18.834 127.262 18.554C127.514 18.2833 127.71 17.938 127.85 17.518L128.004 17.014L125.274 10.196H126.464L127.85 13.962C127.953 14.2607 128.06 14.578 128.172 14.914C128.294 15.2407 128.406 15.5627 128.508 15.88H128.564C128.667 15.572 128.765 15.25 128.858 14.914C128.952 14.578 129.045 14.2607 129.138 13.962L130.356 10.196H131.476L128.914 17.56C128.793 17.896 128.658 18.2087 128.508 18.498C128.359 18.7873 128.182 19.0347 127.976 19.24C127.771 19.4547 127.538 19.6227 127.276 19.744C127.015 19.8653 126.712 19.926 126.366 19.926Z" fill="#0C3122"/>
</svg>
