<svg width="70" height="26" viewBox="0 0 70 26" fill="none" xmlns="http://www.w3.org/2000/svg">
<rect x="0.5" y="0.5" width="69" height="25" rx="12.5" stroke="#0C3122"/>
<path d="M21.6858 17V7.816H24.4158C24.8824 7.816 25.3071 7.858 25.6898 7.942C26.0818 8.026 26.4131 8.15667 26.6838 8.334C26.9638 8.51133 27.1784 8.74467 27.3278 9.034C27.4864 9.314 27.5658 9.65467 27.5658 10.056C27.5658 10.5133 27.4491 10.9287 27.2158 11.302C26.9918 11.666 26.6604 11.918 26.2218 12.058V12.114C26.7818 12.2167 27.2344 12.45 27.5798 12.814C27.9251 13.178 28.0978 13.6773 28.0978 14.312C28.0978 14.76 28.0138 15.152 27.8458 15.488C27.6778 15.824 27.4398 16.104 27.1318 16.328C26.8238 16.552 26.4551 16.72 26.0258 16.832C25.5964 16.944 25.1251 17 24.6118 17H21.6858ZM22.8478 11.722H24.2058C24.9898 11.722 25.5544 11.5867 25.8998 11.316C26.2451 11.0453 26.4178 10.6767 26.4178 10.21C26.4178 9.678 26.2358 9.3 25.8718 9.076C25.5171 8.852 24.9804 8.74 24.2618 8.74H22.8478V11.722ZM22.8478 16.076H24.4438C25.2371 16.076 25.8531 15.9313 26.2918 15.642C26.7304 15.3433 26.9498 14.886 26.9498 14.27C26.9498 13.7007 26.7351 13.2853 26.3058 13.024C25.8764 12.7533 25.2558 12.618 24.4438 12.618H22.8478V16.076ZM28.7155 17L30.9415 13.444L28.8835 10.196H30.1295L31.0395 11.694C31.1422 11.8807 31.2495 12.072 31.3615 12.268C31.4735 12.4547 31.5902 12.6413 31.7115 12.828H31.7675C31.8702 12.6413 31.9729 12.4547 32.0755 12.268C32.1782 12.072 32.2809 11.8807 32.3835 11.694L33.2095 10.196H34.4135L32.3555 13.57L34.5675 17H33.3215L32.3275 15.418C32.2062 15.2127 32.0849 15.0073 31.9635 14.802C31.8422 14.5967 31.7162 14.396 31.5855 14.2H31.5295C31.4082 14.396 31.2915 14.5967 31.1795 14.802C31.0675 14.998 30.9555 15.2033 30.8435 15.418L29.9195 17H28.7155ZM38.3292 17.168C37.9092 17.168 37.5078 17.0887 37.1252 16.93C36.7518 16.7713 36.4205 16.5427 36.1312 16.244C35.8418 15.936 35.6085 15.5627 35.4312 15.124C35.2632 14.676 35.1792 14.172 35.1792 13.612C35.1792 13.0427 35.2632 12.5387 35.4312 12.1C35.6085 11.652 35.8418 11.274 36.1312 10.966C36.4205 10.658 36.7518 10.4247 37.1252 10.266C37.5078 10.1073 37.9092 10.028 38.3292 10.028C38.7492 10.028 39.1458 10.1073 39.5192 10.266C39.9018 10.4247 40.2378 10.658 40.5272 10.966C40.8165 11.274 41.0452 11.652 41.2132 12.1C41.3905 12.5387 41.4792 13.0427 41.4792 13.612C41.4792 14.172 41.3905 14.676 41.2132 15.124C41.0452 15.5627 40.8165 15.936 40.5272 16.244C40.2378 16.5427 39.9018 16.7713 39.5192 16.93C39.1458 17.0887 38.7492 17.168 38.3292 17.168ZM38.3292 16.216C38.6185 16.216 38.8845 16.1553 39.1272 16.034C39.3698 15.9033 39.5752 15.726 39.7432 15.502C39.9205 15.2687 40.0558 14.9933 40.1492 14.676C40.2425 14.3587 40.2892 14.004 40.2892 13.612C40.2892 13.22 40.2425 12.8653 40.1492 12.548C40.0558 12.2213 39.9205 11.9413 39.7432 11.708C39.5752 11.4747 39.3698 11.2973 39.1272 11.176C38.8845 11.0453 38.6185 10.98 38.3292 10.98C38.0398 10.98 37.7738 11.0453 37.5312 11.176C37.2885 11.2973 37.0785 11.4747 36.9012 11.708C36.7332 11.9413 36.6025 12.2213 36.5092 12.548C36.4158 12.8653 36.3692 13.22 36.3692 13.612C36.3692 14.004 36.4158 14.3587 36.5092 14.676C36.6025 14.9933 36.7332 15.2687 36.9012 15.502C37.0785 15.726 37.2885 15.9033 37.5312 16.034C37.7738 16.1553 38.0398 16.216 38.3292 16.216ZM43.509 17V19.408H42.515L42.389 16.79V16.062H42.725C42.8184 16.006 42.907 15.9313 42.991 15.838C43.0844 15.7353 43.1684 15.5813 43.243 15.376C43.3177 15.1707 43.3924 14.8953 43.467 14.55C43.5417 14.2047 43.6117 13.7567 43.677 13.206L44.041 10.196H48.269V16.062H49.263V16.79L49.151 19.408H48.157V17H43.509ZM44.685 13.43C44.6104 14.102 44.5077 14.648 44.377 15.068C44.2557 15.488 44.1157 15.8193 43.957 16.062H47.121V11.134H44.951L44.685 13.43Z" fill="#0C3122"/>
</svg>
