<svg width="80" height="80" viewBox="0 0 80 80" fill="none" xmlns="http://www.w3.org/2000/svg">
<g clip-path="url(#clip0_253:656)">
<path d="M76.5444 13.766C76.4606 11.8558 76.4867 9.94241 76.6227 8.03522C75.1255 8.82254 73.6738 9.69355 72.2746 10.6441C69.6657 12.3833 66.0567 14.9922 64.3523 17.4272C61.6043 21.3144 62.7174 24.8885 65.4828 26.2104C66.5872 20.8187 69.4222 18.9751 73.1442 14.627C71.5006 18.8794 68.3265 22.4536 68.3699 26.7408C72.1615 26.1582 75.9183 24.245 76.7444 21.5231C77.1966 19.7665 76.6314 16.7315 76.5444 13.766Z" fill="#0C3122"/>
<path d="M38.2983 6.53081C38.3821 4.62062 38.356 2.70718 38.22 0.799988C39.7178 1.58619 41.1696 2.45723 42.5681 3.40886C45.177 5.14811 48.7947 7.75698 50.4904 10.1919C53.2384 14.0792 52.134 17.6533 49.3599 18.9751C48.2642 13.5835 45.4205 11.7399 41.7072 7.39174C43.3421 11.6442 46.5162 15.2184 46.4728 19.5056C42.6899 18.923 38.9331 17.0098 38.107 14.2879C37.6374 12.5312 38.2113 9.49623 38.2983 6.53081Z" fill="#0C3122"/>
<path d="M57.8303 43.7855V35.4284L37.1941 43.7855V35.4284L17.8101 43.255L15.7752 13.6877H6.13978L1.60034 79.5357H78.4578V35.4284L57.8303 43.7855ZM29.4283 72.9005H22.2365V65.7348H29.4283V72.9005ZM29.4283 59.8561H22.2365V52.7078H29.4283V59.8561ZM49.621 72.9005H42.4727V65.7348H49.6384L49.621 72.9005ZM49.621 59.8561H42.4727V52.7078H49.6384L49.621 59.8561ZM62.6654 52.6904H69.8311V59.8561H62.6219L62.6654 52.6904ZM70.1615 72.8831H62.9524V65.7348H70.1181L70.1615 72.8831Z" fill="#0C3122"/>
<path d="M51.8819 22.4449H41.4812L40.429 39.9853L52.6385 35.0371L51.8819 22.4449Z" fill="#0C3122"/>
<path d="M72.5618 29.2802H62.161L61.5349 39.7939L72.9183 35.1762L72.5618 29.2802Z" fill="#0C3122"/>
</g>
<defs>
<clipPath id="clip0_253:656">
<rect width="76.8574" height="78.7358" fill="white" transform="translate(1.6001 0.799988)"/>
</clipPath>
</defs>
</svg>
