<svg width="80" height="80" viewBox="0 0 80 80" fill="none" xmlns="http://www.w3.org/2000/svg">
<path d="M40.0044 1.60004C40.0044 1.60004 27.4014 19.8391 27.4014 26.7986C27.4107 29.7299 28.4386 32.5668 30.309 34.8238C32.1795 37.0809 34.7762 38.6176 37.6548 39.1711L38.034 34.1448L30.3904 26.2484L38.2496 31.6613L38.5991 27.1481L32.6508 21.7202L38.7775 25.0364L39.1196 20.7239L34.1155 17.0062L39.2385 19.1624L39.9821 9.28824L40.7256 19.1178L45.5809 16.8277L40.8446 20.6941L41.1866 25.0067L46.9565 21.9358L41.3948 27.1406L41.7517 31.6762L49.6035 26.2632L41.9524 34.1448L42.3465 39.1711C45.2251 38.6176 47.8218 37.0809 49.6923 34.8238C51.5627 32.5668 52.5906 29.7299 52.5999 26.7986C52.5999 19.8391 40.0044 1.60004 40.0044 1.60004Z" fill="#0C3122"/>
<path d="M37.3421 78.6084V48.205L25.7874 40.5243C25.7874 40.5243 20.6645 44.465 22.8951 49.4467L27.163 52.6514L26.8284 58.6518L15.6753 50.6736L10.2772 21.3484C7.74391 19.5637 4.69711 18.6551 1.6001 18.7608L7.79378 59.2243L18.6346 69.4554V78.6084H37.3421Z" fill="#0C3122"/>
<path d="M42.6582 78.6085V48.2051L54.2128 40.5244C54.2128 40.5244 59.3358 44.4651 57.1052 49.4468L52.8373 52.6515L53.1793 58.6519L64.325 50.6737L69.7231 21.3857C72.2563 19.601 75.3032 18.6924 78.4002 18.7981L72.2362 59.2244L61.3731 69.4555V78.6085H42.6582Z" fill="#0C3122"/>
</svg>
