<svg width="25" height="25" viewBox="0 0 25 25" fill="none" xmlns="http://www.w3.org/2000/svg">
<path fill-rule="evenodd" clip-rule="evenodd" d="M0.586388 2.80742C0 3.93627 0 5.41932 0 8.38542V16.6146C0 19.5807 0 21.0637 0.586388 22.1926C1.08053 23.1438 1.85616 23.9195 2.80742 24.4136C3.93627 25 5.41932 25 8.38542 25H16.6146C19.5807 25 21.0637 25 22.1926 24.4136C23.1438 23.9195 23.9195 23.1438 24.4136 22.1926C25 21.0637 25 19.5807 25 16.6146V8.38542C25 5.41932 25 3.93627 24.4136 2.80742C23.9195 1.85616 23.1438 1.08053 22.1926 0.586388C21.0637 0 19.5807 0 16.6146 0H8.38542C5.41932 0 3.93627 0 2.80742 0.586388C1.85616 1.08053 1.08053 1.85616 0.586388 2.80742ZM8.73773 3.46399C9.7074 3.41986 10.0172 3.40907 12.4861 3.40907H12.4833C14.9529 3.40907 15.2616 3.41986 16.2313 3.46399C17.199 3.50831 17.86 3.66153 18.4395 3.88634C19.038 4.11835 19.5437 4.42895 20.0493 4.93463C20.555 5.43994 20.8656 5.94713 21.0985 6.54505C21.322 7.12308 21.4754 7.78369 21.5209 8.75149C21.5644 9.72119 21.5758 10.031 21.5758 12.5C21.5758 14.9689 21.5644 15.278 21.5209 16.2477C21.4754 17.2151 21.322 17.8759 21.0985 18.4541C20.8656 19.0519 20.555 19.5591 20.0493 20.0644C19.5442 20.57 19.0378 20.8814 18.4401 21.1136C17.8617 21.3384 17.2004 21.4916 16.2326 21.536C15.2629 21.5801 14.954 21.5909 12.485 21.5909C10.0163 21.5909 9.70664 21.5801 8.73698 21.536C7.76939 21.4916 7.10862 21.3384 6.53023 21.1136C5.93271 20.8814 5.42552 20.57 4.92043 20.0644C4.41495 19.5591 4.10435 19.0519 3.87197 18.4539C3.64736 17.8759 3.49414 17.2153 3.44964 16.2475C3.4057 15.2778 3.39471 14.9689 3.39471 12.5C3.39471 10.031 3.40608 9.721 3.44945 8.7513C3.49301 7.78388 3.64641 7.12308 3.87178 6.54486C4.10473 5.94713 4.41533 5.43994 4.92099 4.93463C5.42628 4.42914 5.93346 4.11854 6.53136 3.88634C7.10937 3.66153 7.76996 3.50831 8.73773 3.46399ZM12.1831 5.04723C11.9993 5.04715 11.8289 5.04707 11.6706 5.04732V5.04505C9.97633 5.04694 9.65134 5.05831 8.81273 5.09619C7.9264 5.13691 7.44516 5.28463 7.12471 5.40963C6.70049 5.57478 6.39746 5.77175 6.07929 6.08994C5.76112 6.40812 5.56378 6.71115 5.39901 7.13539C5.27458 7.45584 5.12648 7.93691 5.08595 8.82327C5.04239 9.7816 5.03368 10.068 5.03368 12.4956C5.03368 14.9233 5.04239 15.2111 5.08595 16.1695C5.12629 17.0558 5.27458 17.5369 5.39901 17.857C5.56416 18.2814 5.76112 18.5837 6.07929 18.9019C6.39746 19.22 6.70049 19.417 7.12471 19.5818C7.44535 19.7062 7.9264 19.8543 8.81273 19.8952C9.77104 19.9388 10.0587 19.9483 12.4861 19.9483C14.9133 19.9483 15.2012 19.9388 16.1595 19.8952C17.0458 19.8547 17.5272 19.707 17.8473 19.582C18.2717 19.4172 18.5738 19.2202 18.892 18.9021C19.2101 18.5841 19.4075 18.282 19.5723 17.8577C19.6967 17.5377 19.8448 17.0566 19.8853 16.1702C19.9289 15.2119 19.9383 14.924 19.9383 12.4979C19.9383 10.0718 19.9289 9.78388 19.8853 8.82554C19.845 7.93918 19.6967 7.45812 19.5723 7.13804C19.4071 6.7138 19.2101 6.41077 18.892 6.09259C18.574 5.77441 18.2715 5.57744 17.8473 5.41266C17.5269 5.28823 17.0458 5.14013 16.1595 5.0996C15.201 5.05604 14.9133 5.04732 12.4861 5.04732C12.3812 5.04732 12.2803 5.04728 12.1831 5.04723ZM16.2477 7.64732C16.2477 7.04486 16.7364 6.55679 17.3386 6.55679V6.55641C17.9409 6.55641 18.4295 7.04505 18.4295 7.64732C18.4295 8.24959 17.9409 8.73823 17.3386 8.73823C16.7364 8.73823 16.2477 8.24959 16.2477 7.64732ZM7.81769 12.5C7.81769 9.92181 9.90786 7.83151 12.4859 7.83141C15.0641 7.83141 17.1538 9.92175 17.1538 12.5C17.1538 15.0782 15.0642 17.1676 12.4861 17.1676C9.90796 17.1676 7.81769 15.0782 7.81769 12.5ZM15.5163 12.5C15.5163 10.8263 14.1595 9.46967 12.4861 9.46967C10.8125 9.46967 9.45589 10.8263 9.45589 12.5C9.45589 14.1735 10.8125 15.5303 12.4861 15.5303C14.1595 15.5303 15.5163 14.1735 15.5163 12.5Z" fill="url(#paint0_radial_253:573)"/>
<path fill-rule="evenodd" clip-rule="evenodd" d="M0.586388 2.80742C0 3.93627 0 5.41932 0 8.38542V16.6146C0 19.5807 0 21.0637 0.586388 22.1926C1.08053 23.1438 1.85616 23.9195 2.80742 24.4136C3.93627 25 5.41932 25 8.38542 25H16.6146C19.5807 25 21.0637 25 22.1926 24.4136C23.1438 23.9195 23.9195 23.1438 24.4136 22.1926C25 21.0637 25 19.5807 25 16.6146V8.38542C25 5.41932 25 3.93627 24.4136 2.80742C23.9195 1.85616 23.1438 1.08053 22.1926 0.586388C21.0637 0 19.5807 0 16.6146 0H8.38542C5.41932 0 3.93627 0 2.80742 0.586388C1.85616 1.08053 1.08053 1.85616 0.586388 2.80742ZM8.73773 3.46399C9.7074 3.41986 10.0172 3.40907 12.4861 3.40907H12.4833C14.9529 3.40907 15.2616 3.41986 16.2313 3.46399C17.199 3.50831 17.86 3.66153 18.4395 3.88634C19.038 4.11835 19.5437 4.42895 20.0493 4.93463C20.555 5.43994 20.8656 5.94713 21.0985 6.54505C21.322 7.12308 21.4754 7.78369 21.5209 8.75149C21.5644 9.72119 21.5758 10.031 21.5758 12.5C21.5758 14.9689 21.5644 15.278 21.5209 16.2477C21.4754 17.2151 21.322 17.8759 21.0985 18.4541C20.8656 19.0519 20.555 19.5591 20.0493 20.0644C19.5442 20.57 19.0378 20.8814 18.4401 21.1136C17.8617 21.3384 17.2004 21.4916 16.2326 21.536C15.2629 21.5801 14.954 21.5909 12.485 21.5909C10.0163 21.5909 9.70664 21.5801 8.73698 21.536C7.76939 21.4916 7.10862 21.3384 6.53023 21.1136C5.93271 20.8814 5.42552 20.57 4.92043 20.0644C4.41495 19.5591 4.10435 19.0519 3.87197 18.4539C3.64736 17.8759 3.49414 17.2153 3.44964 16.2475C3.4057 15.2778 3.39471 14.9689 3.39471 12.5C3.39471 10.031 3.40608 9.721 3.44945 8.7513C3.49301 7.78388 3.64641 7.12308 3.87178 6.54486C4.10473 5.94713 4.41533 5.43994 4.92099 4.93463C5.42628 4.42914 5.93346 4.11854 6.53136 3.88634C7.10937 3.66153 7.76996 3.50831 8.73773 3.46399ZM12.1831 5.04723C11.9993 5.04715 11.8289 5.04707 11.6706 5.04732V5.04505C9.97633 5.04694 9.65134 5.05831 8.81273 5.09619C7.9264 5.13691 7.44516 5.28463 7.12471 5.40963C6.70049 5.57478 6.39746 5.77175 6.07929 6.08994C5.76112 6.40812 5.56378 6.71115 5.39901 7.13539C5.27458 7.45584 5.12648 7.93691 5.08595 8.82327C5.04239 9.7816 5.03368 10.068 5.03368 12.4956C5.03368 14.9233 5.04239 15.2111 5.08595 16.1695C5.12629 17.0558 5.27458 17.5369 5.39901 17.857C5.56416 18.2814 5.76112 18.5837 6.07929 18.9019C6.39746 19.22 6.70049 19.417 7.12471 19.5818C7.44535 19.7062 7.9264 19.8543 8.81273 19.8952C9.77104 19.9388 10.0587 19.9483 12.4861 19.9483C14.9133 19.9483 15.2012 19.9388 16.1595 19.8952C17.0458 19.8547 17.5272 19.707 17.8473 19.582C18.2717 19.4172 18.5738 19.2202 18.892 18.9021C19.2101 18.5841 19.4075 18.282 19.5723 17.8577C19.6967 17.5377 19.8448 17.0566 19.8853 16.1702C19.9289 15.2119 19.9383 14.924 19.9383 12.4979C19.9383 10.0718 19.9289 9.78388 19.8853 8.82554C19.845 7.93918 19.6967 7.45812 19.5723 7.13804C19.4071 6.7138 19.2101 6.41077 18.892 6.09259C18.574 5.77441 18.2715 5.57744 17.8473 5.41266C17.5269 5.28823 17.0458 5.14013 16.1595 5.0996C15.201 5.05604 14.9133 5.04732 12.4861 5.04732C12.3812 5.04732 12.2803 5.04728 12.1831 5.04723ZM16.2477 7.64732C16.2477 7.04486 16.7364 6.55679 17.3386 6.55679V6.55641C17.9409 6.55641 18.4295 7.04505 18.4295 7.64732C18.4295 8.24959 17.9409 8.73823 17.3386 8.73823C16.7364 8.73823 16.2477 8.24959 16.2477 7.64732ZM7.81769 12.5C7.81769 9.92181 9.90786 7.83151 12.4859 7.83141C15.0641 7.83141 17.1538 9.92175 17.1538 12.5C17.1538 15.0782 15.0642 17.1676 12.4861 17.1676C9.90796 17.1676 7.81769 15.0782 7.81769 12.5ZM15.5163 12.5C15.5163 10.8263 14.1595 9.46967 12.4861 9.46967C10.8125 9.46967 9.45589 10.8263 9.45589 12.5C9.45589 14.1735 10.8125 15.5303 12.4861 15.5303C14.1595 15.5303 15.5163 14.1735 15.5163 12.5Z" fill="#0C3122"/>
<defs>
<radialGradient id="paint0_radial_253:573" cx="0" cy="0" r="1" gradientUnits="userSpaceOnUse" gradientTransform="translate(6.64066 26.9255) rotate(-90) scale(24.7768 23.0444)">
<stop stop-color="#FFDD55"/>
<stop offset="0.1" stop-color="#FFDD55"/>
<stop offset="0.5" stop-color="#FF543E"/>
<stop offset="1" stop-color="#C837AB"/>
</radialGradient>
</defs>
</svg>
