<svg width="80" height="81" viewBox="0 0 80 81" fill="none" xmlns="http://www.w3.org/2000/svg">
<path d="M30.4817 73.7047H49.9659C50.315 73.4539 50.5994 73.1236 50.7956 72.7411C50.9918 72.3586 51.0941 71.9349 51.0941 71.505C51.0941 71.0751 50.9918 70.6514 50.7956 70.2689C50.5994 69.8864 50.315 69.5561 49.9659 69.3053H30.513C30.1638 69.5561 29.8794 69.8864 29.6833 70.2689C29.4871 70.6514 29.3848 71.0751 29.3848 71.505C29.3848 71.9349 29.4871 72.3586 29.6833 72.7411C29.8794 73.1236 30.1638 73.4539 30.513 73.7047H30.4817Z" fill="#0C3122"/>
<path d="M40.8228 45.1869L40.9558 49.0461C45.2691 48.5451 48.6665 43.6604 48.6665 37.7188C48.6665 32.427 42.451 23.3307 40.22 20.2386C37.9968 23.3307 31.7812 32.4348 31.7812 37.6953C31.7812 43.6369 35.1787 48.5217 39.492 49.0227L39.6329 44.999L35.6092 40.4587L39.6955 43.5899L39.8521 39.1122L35.5309 34.3371L39.899 37.7501L40.1182 31.2919C40.1182 31.2758 40.1215 31.2599 40.1278 31.2451C40.1342 31.2303 40.1436 31.217 40.1553 31.206C40.1671 31.195 40.181 31.1865 40.1961 31.1811C40.2113 31.1757 40.2274 31.1734 40.2435 31.1745C40.2746 31.1745 40.3045 31.1869 40.3265 31.2089C40.3485 31.2309 40.3609 31.2608 40.3609 31.2919L40.5644 37.6953L44.776 34.2979L40.6114 39.0731L40.768 43.6369L44.8229 40.3882C44.8315 40.3805 44.8427 40.3763 44.8542 40.3763C44.8658 40.3763 44.8769 40.3805 44.8856 40.3882C44.8933 40.3968 44.8975 40.408 44.8975 40.4195C44.8975 40.4311 44.8933 40.4422 44.8856 40.4508L40.8228 45.1869Z" fill="#0C3122"/>
<path d="M29.3467 64.8041C29.3485 65.2308 29.45 65.6512 29.643 66.0317C29.836 66.4122 30.1152 66.7424 30.4583 66.996H49.9661C50.3092 66.7424 50.5884 66.4122 50.7814 66.0317C50.9744 65.6512 51.0758 65.2308 51.0776 64.8041C51.0829 64.3319 50.9643 63.8665 50.7335 63.4544C50.5027 63.0423 50.1679 62.698 49.7625 62.4557H40.5253H40.267C40.1525 62.4684 40.037 62.4684 39.9225 62.4557H30.6853C30.2756 62.695 29.9361 63.0381 29.7011 63.4504C29.4661 63.8627 29.3439 64.3296 29.3467 64.8041Z" fill="#0C3122"/>
<path d="M40.2196 5.59998C34.018 5.89569 28.1656 8.55715 23.8666 13.0367C19.0915 18.078 17.3301 25.5617 19.0367 33.5073C20.0622 38.2746 22.5437 41.9382 25.1739 45.821C26.1446 47.2613 27.1623 48.7565 28.1017 50.3221C28.9777 52.0142 29.4215 53.8967 29.3933 55.8018C29.3787 57.0838 29.6099 58.3566 30.0744 59.5515C30.1854 59.7879 30.3305 60.0068 30.5049 60.2013H39.1159L39.4212 51.0032C34.0432 50.5022 29.8082 44.7407 29.8082 37.6954C29.8082 30.65 39.0454 18.4616 39.4368 17.9528C39.5289 17.8326 39.6474 17.7353 39.7832 17.6683C39.9189 17.6013 40.0682 17.5665 40.2196 17.5665C40.371 17.5665 40.5203 17.6013 40.6561 17.6683C40.7918 17.7353 40.9103 17.8326 41.0024 17.9528C41.4017 18.4851 50.6389 30.65 50.6389 37.6954C50.6389 44.7407 46.396 50.5022 41.0259 51.0032L41.339 60.1543H49.95C50.1244 59.9599 50.2695 59.741 50.3806 59.5046C50.8417 58.3087 51.0727 57.0365 51.0616 55.7549C51.0334 53.8497 51.4772 51.9672 52.3532 50.2752C53.2926 48.7095 54.3103 47.2144 55.281 45.774C57.9112 41.8599 60.3927 38.2277 61.4182 33.4603C63.1248 25.4913 61.3634 18.0311 56.5883 12.9897C52.2779 8.52385 46.4201 5.87931 40.2196 5.59998V5.59998Z" fill="#0C3122"/>
<path d="M50.0201 75.9984H30.5907C30.2373 76.2479 29.949 76.5786 29.7501 76.9628C29.5512 77.347 29.4475 77.7733 29.4478 78.2059C29.4496 78.6326 29.551 79.0529 29.744 79.4335C29.937 79.814 30.2162 80.1442 30.5594 80.3978H50.0436C50.3942 80.148 50.6801 79.8181 50.8773 79.4354C51.0745 79.0528 51.1774 78.6285 51.1774 78.1981C51.1774 77.7676 51.0745 77.3433 50.8773 76.9607C50.6801 76.5781 50.3942 76.2481 50.0436 75.9984H50.0201Z" fill="#0C3122"/>
</svg>
