<svg width="21" height="21" viewBox="0 0 21 21" fill="none" xmlns="http://www.w3.org/2000/svg">
<path d="M16.3425 17.1561L11.3419 12.1546C9.11732 13.7361 6.05199 13.3492 4.29012 11.2646C2.52825 9.18001 2.65762 6.09308 4.58773 4.16319C6.51733 2.23246 9.60457 2.10253 11.6896 3.8643C13.7746 5.62608 14.1616 8.69171 12.58 10.9164L17.5806 15.9179L16.3434 17.1552L16.3425 17.1561ZM8.29948 4.37493C6.64022 4.37456 5.20871 5.53928 4.87164 7.16395C4.53458 8.78861 5.3846 10.4267 6.90707 11.0864C8.42954 11.7461 10.206 11.2462 11.1609 9.88924C12.1159 8.5323 11.9868 6.69134 10.8519 5.48094L11.3812 6.00594L10.7845 5.41094L10.774 5.40044C10.1193 4.74172 9.2282 4.37243 8.29948 4.37493Z" fill="#0C3122"/>
</svg>
