<svg width="100" height="53" viewBox="0 0 100 53" fill="none" xmlns="http://www.w3.org/2000/svg">
<g clip-path="url(#clip0_292:534)">
<path d="M73.22 9.88994C70.953 11.6134 69.5743 14.066 67.811 16.3595C67.2675 13.4959 67.2675 10.7384 69.0042 8.27254C70.1108 6.62156 71.5419 5.21306 73.2103 4.13274C74.8786 3.05243 76.7493 2.32291 78.7086 1.98858C81.3332 1.65454 83.9179 1.05943 86.4243 0.212104C87.8826 -0.371218 88.6118 0.318168 88.0682 1.74996C87.291 4.27557 86.8453 6.8915 86.7425 9.532C86.4356 11.8991 85.3489 14.0964 83.6539 15.777C81.959 17.4575 79.7524 18.5255 77.3828 18.8121C74.5325 19.2496 73.2465 20.6947 72.0799 23.2003C68.2618 31.8043 66.4323 40.9519 64.4304 50.0464C64.099 51.571 63.8869 52.6978 61.938 52.6978C59.9892 52.6978 59.6976 51.3721 59.4059 50.0464C57.7487 42.3041 55.8795 34.6016 53.5329 27.0317C51.0161 18.2114 46.5128 10.0846 40.3684 3.27454C40.1108 2.90523 39.8847 2.51498 39.6923 2.10789C41.9837 2.61542 44.0599 3.82499 45.6315 5.56808C50.5741 10.2228 54.3097 16.0105 56.5158 22.4314C58.6635 28.0525 59.6711 33.9785 61.8187 39.6659C65.1198 29.2059 68.4474 18.8519 75.1954 10.0092C75.5135 9.71759 75.7919 9.31989 75.6461 8.96195C75.5003 8.604 75.0628 8.81612 74.7844 8.96195C74.2302 9.21236 73.7055 9.52359 73.22 9.88994Z" fill="#0C3122"/>
<path d="M12.7269 36.0732C12.7269 39.2947 12.7269 42.5162 12.7269 45.7378C12.7269 46.9177 12.7932 48.2301 11.1095 48.2566C9.42587 48.2832 9.2933 46.9309 9.2933 45.6052C9.2933 39.0693 9.21376 32.5335 9.2933 26.0109C9.2933 24.0885 8.70994 23.545 6.89369 23.6776C3.42027 23.6776 3.42028 23.6776 1.68357 23.6776C0.755555 23.6776 -0.0398682 23.3196 -0.0398682 22.3518C-0.0655544 22.1226 -0.0406737 21.8906 0.0330373 21.672C0.106748 21.4534 0.2275 21.2537 0.386763 21.0869C0.546025 20.92 0.739937 20.7901 0.954836 20.7063C1.16973 20.6225 1.4004 20.5869 1.63057 20.6019C7.81732 20.6019 14.0041 20.6019 20.1908 20.6019C20.4211 20.5741 20.6546 20.5974 20.8748 20.6702C21.095 20.7429 21.2965 20.8633 21.4648 21.0228C21.6332 21.1824 21.7643 21.377 21.8489 21.593C21.9334 21.8089 21.9693 22.0409 21.954 22.2723C21.954 23.4522 20.9995 23.7173 20.0317 23.7306C18.1226 23.7306 16.2269 23.7969 14.3178 23.7306C12.9921 23.7306 12.5943 24.1416 12.6209 25.4275C12.7799 28.9672 12.7269 32.5202 12.7269 36.0732Z" fill="#0C3122"/>
<path d="M25.6795 31.115C26.3974 30.0565 27.4025 29.2247 28.5767 28.7175C29.7508 28.2103 31.0453 28.0486 32.3081 28.2514C33.2759 28.3707 34.1111 28.7154 34.0051 29.9086C33.899 31.1017 33.2759 31.3934 32.1756 31.4597C27.4162 31.6983 25.653 33.5809 25.5469 38.3535C25.5469 40.9122 25.5469 43.4708 25.5469 46.0295C25.5469 47.1829 25.3878 48.2567 23.903 48.2567C22.4182 48.2567 22.3254 47.1299 22.3254 46.0693C22.3254 41.1243 22.3254 36.1793 22.3254 31.2476C22.3254 30.2003 21.9011 28.6889 23.6511 28.5166C25.4011 28.3442 25.4939 29.6965 25.6795 31.115Z" fill="#0C3122"/>
<path d="M74.8109 32.0696C74.8109 30.956 74.8109 29.8159 76.3753 29.7894C77.9396 29.7628 78.165 30.903 78.165 32.1492V47.4746C78.165 48.6943 77.7938 49.6489 76.4018 49.6489C75.0098 49.6489 74.7844 48.5485 74.7844 47.3951C74.7844 44.8364 74.7844 42.291 74.7844 39.7324" fill="#0C3122"/>
<path d="M74.1881 23.9958C74.1614 23.6889 74.2054 23.3799 74.3168 23.0927C74.4282 22.8054 74.6039 22.5476 74.8305 22.3389C75.0572 22.1302 75.3286 21.9762 75.624 21.8889C75.9194 21.8015 76.231 21.783 76.5346 21.8348C76.8341 21.8487 77.1278 21.9215 77.3991 22.049C77.6705 22.1764 77.9141 22.3561 78.1159 22.5777C78.3178 22.7993 78.4741 23.0584 78.5758 23.3404C78.6776 23.6224 78.7227 23.9217 78.7088 24.2211C78.6949 24.5206 78.6221 24.8143 78.4947 25.0857C78.3672 25.357 78.1876 25.6006 77.966 25.8025C77.7444 26.0044 77.4852 26.1606 77.2032 26.2623C76.9212 26.3641 76.622 26.4093 76.3225 26.3953C76.0138 26.4143 75.7048 26.3628 75.4188 26.2449C75.1329 26.1269 74.8775 25.9456 74.6719 25.7145C74.4663 25.4834 74.316 25.2085 74.2322 24.9108C74.1483 24.6131 74.1333 24.3002 74.1881 23.9958Z" fill="#0C3122"/>
<path d="M52.4193 45.4859C52.4193 42.092 52.3531 38.6982 52.3398 35.3175C52.3398 31.4597 51.1731 29.3385 48.5747 28.5033C44.5975 27.1775 40.09 28.3707 38.2075 31.1547C37.6109 32.0297 36.8818 32.9975 38.2075 33.899C39.5332 34.8005 40.1563 34.1509 40.859 33.1433C41.5284 32.1515 42.5136 31.4152 43.6545 31.0542C44.7953 30.6932 46.0247 30.7286 47.1429 31.1547C48.9857 31.7115 49.2508 33.1831 49.1713 34.6679C49.0917 36.1527 47.766 35.649 46.8115 35.702C44.3245 35.7008 41.8689 36.2581 39.626 37.3326C38.4129 37.981 37.4491 39.0133 36.8853 40.2679C36.3216 41.5225 36.1898 42.9287 36.5106 44.2662C36.7486 45.4546 37.3808 46.5277 38.3047 47.3121C39.2286 48.0964 40.3902 48.546 41.6014 48.5881C42.9627 48.7173 44.3361 48.5651 45.6361 48.1409C46.9361 47.7167 48.1349 47.0296 49.158 46.1223C49.4497 47.5408 49.9932 48.6809 51.5709 48.2169C53.1485 47.7529 52.4193 46.4537 52.4193 45.4859ZM49.2773 40.4481C49.1955 41.2836 48.9395 42.0927 48.5257 42.8231C48.1119 43.5535 47.5496 44.1891 46.875 44.6887C46.2005 45.1884 45.4286 45.5411 44.6093 45.7241C43.79 45.9071 42.9414 45.9163 42.1184 45.7511C41.4662 45.6604 40.8656 45.3467 40.4185 44.8634C39.9714 44.38 39.7054 43.7568 39.6658 43.0996C39.5472 42.3578 39.6831 41.5977 40.0514 40.943C40.4197 40.2883 40.9987 39.7775 41.6941 39.4936C43.4857 38.7234 45.4059 38.2962 47.355 38.2341C49.0785 38.1148 49.4497 38.7379 49.2773 40.4481Z" fill="#0C3122"/>
<path d="M90.8657 29.4444C85.2578 29.5107 81.8374 33.5542 81.9302 40.0503C82.0362 46.2149 85.7218 50.2451 91.2103 50.1258C96.6988 50.0065 100.04 45.8172 100.053 39.6128C100.066 33.4084 96.4072 29.3914 90.8657 29.4444ZM90.2426 47.2357C89.9935 47.2188 89.7457 47.1878 89.5001 47.1429C86.6498 46.4801 84.9661 43.2453 85.1915 38.8438C85.3904 35.0522 87.3127 32.5599 90.2956 32.2152C94.2728 31.7644 96.7386 34.7208 96.6856 39.7188C96.6326 44.7168 94.2463 47.5937 90.2426 47.2357Z" fill="#0C3122"/>
</g>
<defs>
<clipPath id="clip0_292:534">
<rect width="100" height="52.6448" fill="white"/>
</clipPath>
</defs>
</svg>
