<svg width="172" height="91" viewBox="0 0 172 91" fill="none" xmlns="http://www.w3.org/2000/svg">
<g clip-path="url(#clip0_253:700)">
<path d="M125.939 17.0108C122.039 19.9751 119.668 24.1936 116.635 28.1385C115.7 23.2131 115.7 18.4701 118.687 14.2289C120.591 11.3892 123.052 8.96655 125.922 7.10841C128.791 5.25027 132.009 3.9955 135.379 3.42045C139.893 2.8459 144.339 1.82232 148.65 0.364915C151.158 -0.638399 152.412 0.547344 151.477 3.01002C150.141 7.35408 149.374 11.8535 149.197 16.3951C148.669 20.4665 146.8 24.2459 143.885 27.1365C140.969 30.027 137.174 31.8639 133.099 32.357C128.196 33.1094 125.984 35.5949 123.977 39.9046C117.41 54.7035 114.264 70.4373 110.82 86.0799C110.25 88.7022 109.885 90.6404 106.534 90.6404C103.182 90.6404 102.68 88.3601 102.178 86.0799C99.3279 72.7632 96.1127 59.5149 92.0767 46.4946C87.7478 31.3237 80.0021 17.3457 69.4336 5.63231C68.9906 4.99709 68.6017 4.32585 68.2708 3.62567C72.2121 4.49862 75.783 6.57907 78.4863 9.57718C86.9875 17.5834 93.4127 27.5381 97.2073 38.5821C100.901 48.2504 102.634 58.4432 106.328 68.2255C112.006 50.2342 117.73 32.4253 129.336 17.216C129.883 16.7143 130.362 16.0303 130.111 15.4146C129.861 14.799 129.108 15.1638 128.629 15.4146C127.676 15.8454 126.774 16.3807 125.939 17.0108Z" fill="#0C3122"/>
<path d="M21.8906 62.0459C21.8906 67.5869 21.8906 73.128 21.8906 78.669C21.8906 80.6985 22.0046 82.9559 19.1087 83.0015C16.2127 83.0471 15.9847 80.7212 15.9847 78.441C15.9847 67.1993 15.8479 55.9576 15.9847 44.7388C15.9847 41.4324 14.9813 40.4974 11.8574 40.7255C5.88311 40.7255 5.88313 40.7255 2.89599 40.7255C1.2998 40.7255 -0.0683243 40.1098 -0.0683243 38.4452C-0.112505 38.051 -0.0697098 37.6519 0.0570733 37.2759C0.183856 36.9 0.39155 36.5564 0.665481 36.2695C0.939413 35.9825 1.27294 35.7591 1.64257 35.6149C2.01219 35.4708 2.40894 35.4095 2.80483 35.4353C13.446 35.4353 24.0873 35.4353 34.7285 35.4353C35.1245 35.3875 35.5262 35.4276 35.9049 35.5528C36.2837 35.6779 36.6302 35.885 36.9198 36.1594C37.2094 36.4337 37.4349 36.7686 37.5803 37.14C37.7257 37.5115 37.7875 37.9104 37.7612 38.3084C37.7612 40.3378 36.1194 40.7939 34.4548 40.8167C31.1712 40.8167 27.9104 40.9307 24.6269 40.8167C22.3466 40.8167 21.6625 41.5236 21.7081 43.7354C21.9818 49.8237 21.8906 55.9348 21.8906 62.0459Z" fill="#0C3122"/>
<path d="M44.1686 53.5179C45.4035 51.6972 47.1322 50.2666 49.1518 49.3941C51.1713 48.5217 53.3978 48.2436 55.5699 48.5925C57.2345 48.7977 58.6711 49.3906 58.4887 51.4428C58.3062 53.495 57.2345 53.9967 55.3419 54.1107C47.1558 54.5212 44.123 57.7591 43.9406 65.968C43.9406 70.3689 43.9406 74.7699 43.9406 79.1708C43.9406 81.1546 43.667 83.0016 41.1131 83.0016C38.5592 83.0016 38.3996 81.0634 38.3996 79.2392C38.3996 70.7338 38.3996 62.2285 38.3996 53.7459C38.3996 51.9445 37.6699 49.345 40.6798 49.0486C43.6898 48.7521 43.8494 51.078 44.1686 53.5179Z" fill="#0C3122"/>
<path d="M128.675 55.1598C128.675 53.2444 128.675 51.2833 131.366 51.2377C134.056 51.1921 134.444 53.1531 134.444 55.2966V81.6564C134.444 83.7542 133.806 85.396 131.411 85.396C129.017 85.396 128.629 83.5034 128.629 81.5196C128.629 77.1187 128.629 72.7406 128.629 68.3397" fill="#0C3122"/>
<path d="M127.604 41.2727C127.558 40.7448 127.634 40.2134 127.825 39.7194C128.017 39.2253 128.319 38.7818 128.709 38.4229C129.098 38.0639 129.565 37.7991 130.073 37.6488C130.582 37.4985 131.117 37.4667 131.64 37.5559C132.155 37.5798 132.66 37.705 133.127 37.9242C133.593 38.1434 134.012 38.4524 134.36 38.8336C134.707 39.2147 134.976 39.6605 135.151 40.1455C135.326 40.6305 135.403 41.1453 135.379 41.6603C135.355 42.1754 135.23 42.6807 135.011 43.1473C134.792 43.614 134.483 44.033 134.102 44.3802C133.721 44.7275 133.275 44.9963 132.79 45.1712C132.305 45.3462 131.79 45.4239 131.275 45.4C130.744 45.4326 130.212 45.344 129.721 45.1412C129.229 44.9383 128.789 44.6264 128.436 44.2289C128.082 43.8314 127.824 43.3587 127.68 42.8466C127.535 42.3345 127.509 41.7963 127.604 41.2727Z" fill="#0C3122"/>
<path d="M90.1614 78.2358C90.1614 72.3983 90.0474 66.5609 90.0246 60.7462C90.0246 54.1107 88.0179 50.4622 83.5486 49.0257C76.7078 46.7454 68.955 48.7976 65.717 53.5862C64.6909 55.0911 63.4368 56.7558 65.717 58.3063C67.9973 59.8569 69.069 58.7396 70.2775 57.0066C71.429 55.3006 73.1235 54.0342 75.0858 53.4132C77.0481 52.7923 79.1627 52.8532 81.086 53.5862C84.2555 54.5439 84.7116 57.075 84.5748 59.6289C84.4379 62.1827 82.1577 61.3162 80.5159 61.4075C76.2382 61.4054 72.0146 62.3639 68.1569 64.2122C66.0704 65.3273 64.4125 67.1028 63.4429 69.2608C62.4733 71.4188 62.2466 73.8374 62.7983 76.138C63.2078 78.1819 64.2951 80.0278 65.8842 81.3768C67.4733 82.7259 69.4712 83.4992 71.5545 83.5716C73.896 83.7938 76.2582 83.532 78.4942 82.8024C80.7302 82.0727 82.7922 80.8909 84.5519 79.3303C85.0536 81.7702 85.9885 83.7312 88.702 82.9331C91.4155 82.135 90.1614 79.9004 90.1614 78.2358ZM84.7571 69.5708C84.6164 71.0079 84.176 72.3994 83.4643 73.6558C82.7526 74.9121 81.7855 76.0052 80.6252 76.8647C79.4649 77.7241 78.1373 78.3308 76.7281 78.6455C75.3189 78.9602 73.8594 78.976 72.4438 78.6919C71.3221 78.5359 70.289 77.9964 69.52 77.165C68.751 76.3337 68.2935 75.2618 68.2253 74.1313C68.0213 72.8555 68.2551 71.5481 68.8886 70.422C69.522 69.2959 70.5178 68.4173 71.7141 67.929C74.7956 66.6044 78.0983 65.8695 81.4508 65.7628C84.4151 65.5575 85.0536 66.6293 84.7571 69.5708Z" fill="#0C3122"/>
<path d="M156.289 50.6443C146.643 50.7583 140.76 57.7131 140.92 68.8864C141.102 79.4896 147.441 86.4216 156.881 86.2164C166.322 86.0112 172.068 78.8056 172.091 68.1339C172.114 57.4623 165.82 50.5531 156.289 50.6443ZM155.217 81.2454C154.789 81.2163 154.362 81.163 153.94 81.0858C149.037 79.9457 146.142 74.3818 146.529 66.8114C146.871 60.2898 150.178 56.0029 155.308 55.4101C162.149 54.6348 166.39 59.7198 166.299 68.3163C166.208 76.9129 162.103 81.8611 155.217 81.2454Z" fill="#0C3122"/>
</g>
<defs>
<clipPath id="clip0_253:700">
<rect width="172" height="90.5491" fill="white"/>
</clipPath>
</defs>
</svg>
