<svg width="25" height="25" viewBox="0 0 25 25" fill="none" xmlns="http://www.w3.org/2000/svg">
<path fill-rule="evenodd" clip-rule="evenodd" d="M0.586388 2.80742C0 3.93627 0 5.41932 0 8.38542V16.6146C0 19.5807 0 21.0637 0.586388 22.1926C1.08053 23.1438 1.85616 23.9195 2.80742 24.4136C3.93627 25 5.41932 25 8.38542 25H16.6146C19.5807 25 21.0637 25 22.1926 24.4136C23.1438 23.9195 23.9195 23.1438 24.4136 22.1926C25 21.0637 25 19.5807 25 16.6146V8.38542C25 5.41932 25 3.93627 24.4136 2.80742C23.9195 1.85616 23.1438 1.08053 22.1926 0.586388C21.0637 0 19.5807 0 16.6146 0H8.38542C5.41932 0 3.93627 0 2.80742 0.586388C1.85616 1.08053 1.08053 1.85616 0.586388 2.80742ZM4.03786 11.6521L19.089 5.84686C19.7765 5.53486 20.44 6.01208 20.1775 7.06416L17.6144 19.1425C17.4355 20.0009 16.9167 20.2062 16.1982 19.8098L12.2936 16.9249L12.219 16.9974C11.3323 17.8595 10.5513 18.6188 10.4168 18.7505C10.4119 18.7552 10.4071 18.7599 10.4024 18.7646C10.1914 18.9708 10.0173 19.1411 9.63537 19.1411C9.2389 19.1411 9.20583 19.0238 9.12617 18.7413C9.10414 18.6631 9.07855 18.5724 9.04072 18.4679L7.60443 14.0644L3.85062 12.8927C3.01669 12.6372 3.0106 12.0643 4.03786 11.6521ZM16.6546 8.45703L8.19354 13.7952L9.61933 18.1663L9.90142 15.1576L17.1463 8.62085C17.4643 8.33859 17.077 8.20087 16.6546 8.45703Z" fill="#0C3122"/>
</svg>
