<svg width="80" height="80" viewBox="0 0 80 80" fill="none" xmlns="http://www.w3.org/2000/svg">
<path fill-rule="evenodd" clip-rule="evenodd" d="M64.0366 20.1992C65.3209 20.1968 66.5517 19.6848 67.459 18.7758C68.3662 17.8668 68.8758 16.635 68.8758 15.3507V5.06044C68.9044 4.40651 68.8003 3.75356 68.5698 3.14094C68.3393 2.52832 67.9871 1.96871 67.5345 1.49586C67.0819 1.02301 66.5382 0.646705 65.9362 0.389621C65.3343 0.132537 64.6865 0 64.0319 0C63.3774 0 62.7296 0.132537 62.1277 0.389621C61.5257 0.646705 60.982 1.02301 60.5294 1.49586C60.0768 1.96871 59.7246 2.52832 59.4941 3.14094C59.2636 3.75356 59.1595 4.40651 59.1881 5.06044V15.3507C59.1881 15.9874 59.3135 16.6179 59.5572 17.2062C59.8008 17.7944 60.158 18.3289 60.6082 18.7791C61.0584 19.2293 61.5929 19.5865 62.1811 19.8301C62.7694 20.0738 63.3999 20.1992 64.0366 20.1992ZM17.8987 19.8302C17.3105 20.0739 16.68 20.1993 16.0433 20.1993C14.7574 20.1993 13.5241 19.6885 12.6149 18.7792C11.7056 17.8699 11.1948 16.6367 11.1948 15.3508V5.06052C11.1948 3.77462 11.7056 2.54139 12.6149 1.63212C13.5241 0.722857 14.7574 0.212036 16.0433 0.212036C17.3292 0.212036 18.5624 0.722857 19.4717 1.63212C20.3809 2.54139 20.8917 3.77462 20.8917 5.06052V15.3508C20.8917 15.9875 20.7663 16.618 20.5227 17.2062C20.279 17.7945 19.9219 18.329 19.4717 18.7792C19.0214 19.2294 18.4869 19.5866 17.8987 19.8302ZM72.0558 11.0213V15.3506C72.0925 16.4285 71.9118 17.5027 71.5246 18.5093C71.1374 19.5158 70.5516 20.4342 69.802 21.2096C69.0525 21.9851 68.1545 22.6017 67.1617 23.0229C66.1689 23.4441 65.1014 23.6611 64.0229 23.6611C62.9445 23.6611 61.877 23.4441 60.8842 23.0229C59.8913 22.6017 58.9934 21.9851 58.2438 21.2096C57.4943 20.4342 56.9085 19.5158 56.5213 18.5093C56.1341 17.5027 55.9534 16.4285 55.99 15.3506V11.0213H24.0809V15.3506C24.1175 16.4285 23.9368 17.5027 23.5496 18.5093C23.1624 19.5158 22.5766 20.4342 21.8271 21.2096C21.0775 21.9851 20.1796 22.6017 19.1867 23.0229C18.1939 23.4441 17.1264 23.6611 16.048 23.6611C14.9695 23.6611 13.902 23.4441 12.9092 23.0229C11.9163 22.6017 11.0184 21.9851 10.2689 21.2096C9.51933 20.4342 8.93352 19.5158 8.54631 18.5093C8.15911 17.5027 7.97844 16.4285 8.01506 15.3506V11.0213H1.59985V79.549H78.4803V11.0213H72.0558ZM39.5626 22.4612C39.5626 22.4612 39.1288 23.0891 38.4052 24.176C34.7745 29.6302 23.8491 46.6437 23.8491 53.879C23.8607 57.5338 25.1423 61.0709 27.4744 63.885C29.3889 66.1952 31.9138 67.9002 34.7424 68.8185C35.3592 69.0188 35.9906 69.1816 36.6331 69.3052L36.7788 67.3742L37.1059 63.0383L34.3535 60.1949L27.5758 53.193L35.5446 58.6815L35.6014 58.7205L37.3748 59.942L37.5463 57.7264L37.8105 54.3148L36.2811 52.9192L30.3941 47.5473L36.1843 50.6813L37.4029 51.3409L38.033 51.6819L38.1992 49.5864L38.4536 46.3786L38.4594 46.305L37.9482 45.9252L32.2204 41.6698L36.7395 43.5719L38.5363 44.3281L38.6077 44.3582L38.6318 44.0387L38.76 42.337L39.5348 32.047L40.3066 42.2507L40.4337 43.9309L40.4619 44.3026L40.5422 44.2647L42.323 43.4248L46.5155 41.4473L41.1724 45.809L40.6102 46.2679L40.617 46.3545L40.8709 49.5558L41.0366 51.6448L41.7085 51.2873L42.8866 50.6603L48.2306 47.8161L42.8361 52.8644L41.2962 54.3055L41.5669 57.7462L41.7412 59.9605L43.4325 58.7945L43.5699 58.6998L51.5309 53.2116L44.6795 60.2693L41.9915 63.0383L42.3315 67.3754L42.4828 69.3052C43.1251 69.1817 43.7561 69.019 44.3726 68.8188C47.2016 67.9006 49.7268 66.1955 51.6416 63.885C53.9737 61.0709 55.2552 57.5338 55.2669 53.879C55.2669 46.6438 44.3484 29.6309 40.7195 24.1763C39.9963 23.0892 39.5626 22.4612 39.5626 22.4612ZM38.7191 27.1971C39.0227 26.7298 39.3052 26.2989 39.5621 25.9095C39.8189 26.2988 40.1011 26.7296 40.4044 27.1967C41.8652 29.4465 43.81 32.5316 45.7521 35.8804C47.6978 39.2355 49.6217 42.8225 51.0533 46.0822C52.5188 49.4189 53.3439 52.143 53.3449 53.876C53.3339 57.084 52.2087 60.1885 50.1617 62.6586C48.58 64.5672 46.5238 66.0054 44.2175 66.8403L43.9755 63.7539L52.9099 54.5503L50.4399 51.6292L43.3957 56.4854L43.2849 55.0768L49.5438 49.2195L47.3276 46.1194L42.7209 48.5712L42.6058 47.12L47.7309 42.9362L45.6956 39.7089L42.1677 41.3729L41.4513 31.902L37.6182 31.9026L36.8917 41.5506L32.966 39.8983L31.0741 43.2126L36.4593 47.2135L36.3505 48.5858L31.309 45.857L29.0985 48.967L35.8218 55.102L35.7162 56.4658L28.666 51.6101L26.1948 54.5298L35.1244 63.7547L34.8918 66.8379C32.5882 66.0026 30.5344 64.5654 28.9542 62.6586C26.9072 60.1885 25.7821 57.084 25.7711 53.8761C25.772 52.1433 26.5976 49.4193 28.0639 46.0826C29.4964 42.8229 31.4214 39.2359 33.3682 35.8808C35.3115 32.5321 37.2575 29.447 38.7191 27.1971Z" fill="#0C3122"/>
</svg>
